<!DOCTYPE svg PUBLIC "-//W3C//DTD SVG 1.1//EN" "http://www.w3.org/Graphics/SVG/1.1/DTD/svg11.dtd">
<!-- Uploaded to: SVG Repo, www.svgrepo.com, Transformed by: SVG Repo Mixer Tools -->
<svg fill="#000000" width="64px" height="64px" viewBox="-6 -6 36.00 36.00" xmlns="http://www.w3.org/2000/svg">
<g id="SVGRepo_bgCarrier" stroke-width="0">
<rect x="-6" y="-6" width="36.00" height="36.00" rx="18" fill="#eeb4d6" strokewidth="0"/>
</g>
<g id="SVGRepo_tracerCarrier" stroke-linecap="round" stroke-linejoin="round"/>
<g id="SVGRepo_iconCarrier"> <g id="Boxes"> <path d="M19.435,11.5h-2.72V4.56a1.5,1.5,0,0,0-1.5-1.5H8.785a1.5,1.5,0,0,0-1.5,1.5V11.5H4.565a1.5,1.5,0,0,0-1.5,1.5v6.44a1.5,1.5,0,0,0,1.5,1.5H11a1.468,1.468,0,0,0,1-.39,1.487,1.487,0,0,0,1,.39h6.44a1.5,1.5,0,0,0,1.5-1.5V13A1.5,1.5,0,0,0,19.435,11.5ZM11.5,19.44a.5.5,0,0,1-.5.5H4.565a.5.5,0,0,1-.5-.5V13a.5.5,0,0,1,.5-.5h1.97v2a.5.5,0,0,0,.5.5h1.5a.508.508,0,0,0,.5-.5v-2H11.5ZM8.285,11.5V4.56a.5.5,0,0,1,.5-.5h1.96v2a.5.5,0,0,0,.5.5h1.5a.5.5,0,0,0,.5-.5v-2h1.97a.5.5,0,0,1,.5.5V11.5Zm11.65,7.94a.508.508,0,0,1-.5.5H13a.508.508,0,0,1-.5-.5V12.5h2.47v2a.5.5,0,0,0,.5.5h1.5a.5.5,0,0,0,.5-.5v-2h1.97a.5.5,0,0,1,.5.5Z"/> </g> </g>
</svg>